<svg xmlns="http://www.w3.org/2000/svg" viewBox="0 0 79.93 96" x="0px" y="0px">
<title>HEXAGON</title>
<g data-name="Layer 2">
<path d="M8,66.79V29.21a7.46,7.46,0,0,1,3.71-6.43L44.29,4a7.45,7.45,0,0,1,7.42,0L84.26,22.78A7.46,7.46,0,0,1,88,29.21V66.79a7.43,7.43,0,0,1-3.71,6.43L51.71,92a7.45,7.45,0,0,1-7.42,0L11.74,73.21A7.4,7.4,0,0,1,8,66.79ZM83.19,29.21a2.66,2.66,0,0,0-1.32-2.29L49.32,8.13a2.65,2.65,0,0,0-2.64,0L14.13,26.92a2.66,2.66,0,0,0-1.32,2.29V66.79a2.66,2.66,0,0,0,1.32,2.29L46.68,87.87a2.65,2.65,0,0,0,2.64,0L81.87,69.08a2.66,2.66,0,0,0,1.32-2.29Z" 
	transform="translate(-8.03 0)"
	fill="#ff6584"/>
</g>
</svg>