<?xml version="1.0" standalone="no"?>
<!DOCTYPE svg PUBLIC "-//W3C//DTD SVG 20010904//EN"
 "http://www.w3.org/TR/2001/REC-SVG-20010904/DTD/svg10.dtd">
<svg version="1.0" xmlns="http://www.w3.org/2000/svg"
 width="400.000000pt" height="400.000000pt" viewBox="0 0 400.000000 150">

<g transform="translate(20.000000,275.000000) scale(0.100000,-0.100000)"
fill="#000000" stroke="#000000">
<path d="M377 2147 c-3 -8 -6 -67 -6 -132 -1 -69 -6 -124 -12 -132 -8 -9 -38
-13 -95 -13 -91 0 -104 8 -104 64 0 16 -6 26 -14 26 -22 0 -29 -17 -22 -55 11
-59 25 -65 142 -65 146 0 144 -2 144 180 0 113 -3 140 -14 140 -8 0 -16 -6
-19 -13z"/>
<path d="M490 2000 l0 -160 160 0 c136 0 160 2 160 15 0 13 -22 15 -140 15
l-140 0 0 55 0 54 133 3 c109 3 132 6 132 18 0 12 -23 15 -132 18 l-133 3 0
49 0 50 140 0 c133 0 140 1 140 20 0 19 -7 20 -160 20 l-160 0 0 -160z"/>
<path d="M867 2153 c-4 -3 -7 -75 -7 -160 0 -146 1 -153 20 -153 18 0 20 8 22
143 l3 142 94 -142 c75 -114 98 -143 116 -143 18 0 42 29 116 143 l94 142 3
-142 c2 -118 5 -143 17 -143 13 0 15 26 15 160 l0 160 -29 0 c-27 0 -38 -13
-121 -140 -51 -77 -96 -138 -100 -135 -5 3 -48 66 -96 140 -76 117 -91 135
-114 135 -15 0 -30 -3 -33 -7z"/>
<path d="M1484 2150 c-30 -12 -54 -49 -54 -81 0 -64 55 -88 203 -89 43 0 87
-5 98 -10 23 -13 25 -57 5 -86 -13 -17 -27 -19 -132 -19 -86 0 -118 3 -122 13
-7 22 -34 44 -44 34 -16 -16 9 -59 43 -71 17 -6 74 -11 126 -11 137 0 183 25
183 98 0 67 -53 91 -206 92 -94 0 -117 12 -112 55 5 43 37 55 146 55 96 0 132
-10 132 -35 0 -8 9 -15 20 -15 25 0 26 21 1 51 -18 23 -26 24 -143 26 -67 2
-133 -2 -144 -7z"/>
<path d="M1845 2150 c-13 -22 9 -30 81 -30 l74 0 0 -140 c0 -133 1 -140 20
-140 19 0 20 7 20 140 l0 140 80 0 c73 0 80 2 80 20 0 19 -7 20 -174 20 -106
0 -177 -4 -181 -10z"/>
<path d="M2270 2000 l0 -160 160 0 c136 0 160 2 160 15 0 13 -22 15 -140 15
l-140 0 0 55 0 55 130 0 c123 0 130 1 130 20 0 19 -7 20 -130 20 l-130 0 0 50
0 49 138 3 c114 3 137 6 137 18 0 13 -25 15 -157 18 l-158 3 0 -161z"/>
<path d="M2684 2150 c-44 -17 -54 -48 -54 -157 0 -93 2 -104 24 -130 l24 -28
142 0 142 0 24 28 c30 35 32 77 5 77 -14 0 -21 -8 -23 -27 -5 -41 -38 -53
-153 -53 -142 0 -145 2 -145 134 0 137 -1 136 152 136 99 0 117 -3 131 -18 10
-10 17 -26 17 -35 0 -10 8 -17 20 -17 38 0 23 63 -21 85 -31 17 -248 20 -285
5z"/>
<path d="M3080 2000 c0 -153 1 -160 20 -160 18 0 20 7 20 70 l0 70 145 0 145
0 0 -70 c0 -63 2 -70 20 -70 19 0 20 7 20 160 0 153 -1 160 -20 160 -18 0 -20
-7 -20 -70 l0 -70 -145 0 -145 0 0 70 c0 63 -2 70 -20 70 -19 0 -20 -7 -20
-160z"/>
<!-- <rect width="50" height="50" fill='#000' /> -->
</g>
</svg>
