<svg xmlns="http://www.w3.org/2000/svg" width="1514" height="265" fill="none" viewBox="0 0 1514 265">
    <path fill="#000" d="M246.961 234.55c-.077-8.141-3.383-15.919-9.191-21.625-5.808-5.706-13.643-8.873-21.785-8.807-8.134-.054-15.959 3.119-21.758 8.823-5.799 5.704-9.101 13.475-9.18 21.609.077 8.134 3.378 15.906 9.177 21.611 5.8 5.705 13.626 8.877 21.761 8.821 8.142.066 15.977-3.102 21.785-8.808 5.808-5.706 9.114-13.483 9.191-21.624zm0-152.115c-.075-8.142-3.38-15.922-9.188-21.63-5.808-5.708-13.644-8.877-21.788-8.811-8.135-.056-15.961 3.116-21.761 8.82-5.799 5.705-9.1 13.477-9.177 21.612.077 8.135 3.377 15.908 9.177 21.614 5.799 5.707 13.625 8.881 21.761 8.827 8.134.054 15.958-3.119 21.756-8.824 5.797-5.705 9.097-13.475 9.174-21.608h.046zm-83.689 180.696v-57.263c-12.679.088-24.876-4.856-33.914-13.748s-14.181-21.005-14.3-33.683c.119-12.678 5.261-24.792 14.299-33.685 9.039-8.894 21.235-13.84 33.915-13.754V53.744c-25.127-.154-49.491 8.629-68.738 24.78-19.247 16.153-32.125 38.621-36.331 63.392V0H0v263.121h58.203V174.95c4.206 24.771 17.084 47.239 36.331 63.391 19.247 16.152 43.611 24.935 68.738 24.78M1513.53 262.994V105.399h-49.09v20.599c-5.36-7.32-12.45-13.192-20.65-17.087-8.19-3.895-17.23-5.69-26.29-5.223-9.76-.134-19.43 1.825-28.37 5.747-8.94 3.922-16.94 9.715-23.45 16.988-14.41 15.812-22.04 36.649-21.25 58.028-.81 21.345 6.82 42.151 21.25 57.901 6.42 7.189 14.3 12.923 23.11 16.818 8.82 3.896 18.36 5.862 28 5.768 9.39.208 18.69-1.96 27.02-6.305 8.33-4.344 15.43-10.723 20.63-18.544v22.905h49.09zm-49.09-78.808c.33 5.276-.44 10.562-2.27 15.522-1.83 4.959-4.67 9.482-8.35 13.279-3.2 3.232-7 5.795-11.2 7.541-4.19 1.746-8.7 2.638-13.24 2.626-9.15.033-17.94-3.57-24.44-10.018-3.68-3.767-6.53-8.268-8.37-13.211-1.83-4.942-2.59-10.214-2.25-15.474-.33-5.275.44-10.561 2.27-15.52 1.83-4.96 4.68-9.483 8.35-13.281 3.2-3.23 7-5.793 11.2-7.538 4.2-1.746 8.7-2.639 13.24-2.629 9.15-.024 17.94 3.587 24.44 10.039 3.68 3.767 6.54 8.268 8.37 13.211 1.83 4.942 2.6 10.215 2.25 15.474v-.021zm-194.66 78.808h49.11V105.399h-49.11v85.565c.28 4.277-.3 8.566-1.71 12.616-1.4 4.049-3.59 7.779-6.46 10.969-2.98 2.858-6.51 5.072-10.39 6.505-3.87 1.433-8 2.054-12.12 1.824-4.13.236-8.27-.382-12.15-1.815-3.88-1.433-7.42-3.651-10.41-6.514-2.86-3.189-5.06-6.917-6.47-10.967-1.41-4.05-1.99-8.34-1.72-12.618v-85.565h-48.8v92.067c-.98 17.987 5.16 35.637 17.09 49.136 5.73 6 12.67 10.714 20.37 13.828 7.69 3.113 15.96 4.556 24.25 4.232 9.58.683 19.17-1.27 27.73-5.649 8.55-4.378 15.74-11.015 20.79-19.19v23.171zm-195.21 0h49.1V54h-49.1v72.009c-5.36-7.32-12.45-13.191-20.65-17.086-8.19-3.895-17.23-5.69-26.29-5.224-9.76-.136-19.44 1.823-28.375 5.745-8.939 3.922-16.933 9.716-23.441 16.99-14.415 15.811-22.045 36.648-21.25 58.028-.817 21.345 6.819 42.15 21.25 57.901 6.417 7.188 14.296 12.923 23.11 16.818 8.816 3.896 18.356 5.862 27.996 5.768 9.39.208 18.69-1.961 27.02-6.305 8.33-4.344 15.43-10.723 20.63-18.544v22.894zm0-78.798c.33 5.276-.44 10.563-2.27 15.523-1.83 4.959-4.67 9.482-8.35 13.279-3.2 3.232-7 5.795-11.2 7.541-4.19 1.745-8.7 2.638-13.24 2.626-9.15.027-17.94-3.576-24.44-10.018-3.68-3.767-6.54-8.268-8.37-13.211-1.83-4.942-2.6-10.215-2.25-15.474-.33-5.276.44-10.562 2.27-15.521 1.83-4.959 4.68-9.482 8.35-13.28 3.2-3.228 7.01-5.789 11.2-7.534 4.2-1.746 8.7-2.641 13.24-2.634 9.15-.023 17.94 3.588 24.44 10.04 3.68 3.767 6.54 8.268 8.37 13.21 1.83 4.943 2.6 10.215 2.25 15.475v-.022zm-198.673 78.798h48.811v-92.077c.965-17.992-5.178-35.642-17.106-49.147-5.737-5.996-12.681-10.707-20.374-13.82-7.692-3.114-15.958-4.559-24.251-4.241-9.586-.678-19.174 1.279-27.727 5.659-8.554 4.38-15.746 11.017-20.797 19.191v-23.16h-49.098v157.595h49.098v-85.586c-.27-4.279.315-8.568 1.721-12.618 1.407-4.049 3.607-7.778 6.471-10.967 2.985-2.858 6.526-5.072 10.403-6.505 3.876-1.433 8.006-2.054 12.132-1.825 4.127-.229 8.257.392 12.133 1.825 3.877 1.433 7.418 3.647 10.403 6.505 2.861 3.191 5.057 6.92 6.46 10.97 1.403 4.049 1.984 8.338 1.71 12.615l.011 85.586zm-196.933 0h49.077V105.399h-49.098v20.599c-5.361-7.32-12.46-13.192-20.656-17.087-8.196-3.895-17.233-5.689-26.295-5.223-9.761-.134-19.437 1.825-28.376 5.747-8.938 3.922-16.932 9.715-23.442 16.988-14.415 15.811-22.046 36.649-21.25 58.028-.817 21.345 6.819 42.151 21.25 57.901 6.418 7.188 14.297 12.921 23.111 16.817 8.814 3.895 18.359 5.862 27.995 5.769 9.395.209 18.69-1.959 27.023-6.303 8.333-4.345 15.433-10.724 20.64-18.546l.021 22.905zm0-78.798c.329 5.276-.447 10.562-2.276 15.521-1.829 4.959-4.673 9.482-8.349 13.281-3.195 3.23-7.001 5.793-11.197 7.538-4.195 1.746-8.696 2.639-13.24 2.629-9.151.031-17.941-3.573-24.437-10.018-3.686-3.767-6.538-8.269-8.368-13.211-1.831-4.942-2.6-10.215-2.257-15.474-.329-5.276.446-10.562 2.275-15.521 1.83-4.959 4.674-9.482 8.35-13.28 3.196-3.23 7.003-5.792 11.198-7.537s8.695-2.64 13.239-2.631c9.154-.02 17.942 3.591 24.437 10.04 3.684 3.769 6.534 8.27 8.365 13.212 1.83 4.942 2.601 10.214 2.26 15.473v-.022zm-125.172 78.798l-68.605-77.098 68.605-80.497h-66.023l-49.661 65.794V54H389v208.994h49.098v-63l50.532 63h65.162z"/>
</svg>
