<svg xmlns="http://www.w3.org/2000/svg" data-name="Layer 1" width="926.63239" height="785.99373" viewBox="0 0 926.63239 785.99373" xmlns:xlink="http://www.w3.org/1999/xlink">
<polygon points="452.017 694.074 469.604 694.073 477.971 626.236 452.014 626.237 452.017 694.074" fill="#ffb6b6"/>
<path d="M584.21461,745.3347l4.95031-.0002,19.32677-7.85976,10.35857,7.85856h.0014a22.07371,22.07371,0,0,1,22.07254,22.07219v.71727l-56.70854.0021Z" transform="translate(-136.6838 -57.00314)" fill="#2f2e41"/>
<polygon points="320.308 694.074 302.721 694.073 294.354 626.236 320.311 626.237 320.308 694.074" fill="#ffb6b6"/>
<path d="M461.47733,768.12486l-56.70854-.0021v-.71727a22.07373,22.07373,0,0,1,22.07255-22.07219h.0014l10.35856-7.85856,19.32678,7.85976,4.9503.0002Z" transform="translate(-136.6838 -57.00314)" fill="#2f2e41"/>
<path d="M520.00914,231.19113,502.20127,244.7512,454.89616,257.279s16.95034,118.9604,8.95034,126.9604-.785,8.215-2.3925,18.60751-8.0134,37.83062-8.0134,37.83062l141.18774,0s1.13768-17.05233-5.82208-20.74524,6.41582-20.92914.728-23.811,2.31221-27.88189,2.31221-27.88189l17.33726-81.84953-46.11409-36.07971-7.01323-16.89753Z" transform="translate(-136.6838 -57.00314)" fill="#6c63ff"/>
<circle cx="405.54518" cy="274.32837" r="6.16142" fill="#f2f2f2"/>
<path d="M453.4406,440.67752l-5.82221,149.921S422.47986,701.32826,426.8465,704.23939s6.21647,20.26918,6.21647,20.26918l24.74427,2.91107s0-11.64434,5.8222-16.011,59.67731-209.59827,59.67731-209.59827l52.53975,198.429s1.31535,11.16933,5.682,11.16933,5.8222,16.011,5.8222,16.011h24.7442v-16.011s11.11824-3.525,6.75161-15.16933-24.21816-255.56184-24.21816-255.56184Z" transform="translate(-136.6838 -57.00314)" fill="#2f2e41"/>
<circle cx="401.81722" cy="135.41526" r="29.83864" fill="#ffb6b6"/>
<polygon points="452.85 269.414 458.672 273.781 461.583 253.403 452.85 269.414" opacity="0.1" style="isolation:isolate"/>
<path d="M457.68656,257.16325s-7.27771-1.45554-11.64435,11.64435-20.37763,62.58838-20.37763,71.32162S525.37479,387.396,525.37479,387.396L515,351l-45.66916-23.97063Z" transform="translate(-136.6838 -57.00314)" fill="#6c63ff"/>
<circle cx="393.3162" cy="307.99686" r="17" fill="#ffb6b6"/><polygon points="331.316 251.997 332.647 270.026 374.878 292.192 337.316 266.997 331.316 251.997" opacity="0.1" style="isolation:isolate"/>
<path d="M569.523,311.57037h-.54786V296.5621a8.68635,8.68635,0,0,0-8.68634-8.6864H528.49175a8.68638,8.68638,0,0,0-8.68641,8.68637v82.33658a8.68636,8.68636,0,0,0,8.68634,8.6864h31.79706a8.68638,8.68638,0,0,0,8.6864-8.68637V322.25354h.54786Z" transform="translate(-136.6838 -57.00314)" fill="#f0f0f0"/>
<path d="M609.18376,286.38986s4.36664,2.9111,7.27771,16.011,21.83313,62.58838,14.55542,74.23273-9.42613,24.07235-34.17039,6.60582l-34.24019-31.35005,24.74426-23.2887,10.18878,7.27771Z" transform="translate(-136.6838 -57.00314)" fill="#6c63ff"/>
<circle cx="408.09493" cy="260.29233" r="7.27771" fill="#6c63ff"/>
<circle cx="429.16269" cy="276.23626" r="17" fill="#ffb6b6"/>
<polygon points="330.514 306.41 379.316 327.997 329.158 318.194 330.514 306.41" opacity="0.1" style="isolation:isolate"/>
<path d="M508.39724,198.36486,504.30036,182.773c-1.069-4.06825-2.1468-8.2188-1.90666-12.41829s2.02153-8.53306,5.55953-10.80812,8.93887-1.73765,11.21552,1.79934c.43269-5.6477,5.57051-9.99191,11.02167-11.5309s11.23883-.93036,16.89712-.67071,11.63086.07839,16.51434-2.79133a5.11236,5.11236,0,0,1-2.289,6.0413,4.96273,4.96273,0,0,0,5.99526-3.162,12.87951,12.87951,0,0,1-3.38121,8.84533A9.47453,9.47453,0,0,1,576.173,161.5452c2.49223,4.32072,1.09576,9.747-.36235,14.5171l-7.48376,24.48244c-1.13493-3.72175-1.349-7.651-1.95614-11.49426s-1.68723-7.76808-4.22427-10.71815-6.84639-4.65853-10.45111-3.19377c-2.02248.82183-3.56457,2.4891-5.39049,3.68569-3.74646,2.45519-8.512,2.80734-12.96327,2.30773s-8.789-1.76713-13.2396-2.27343c-2.78658-.317-5.89639-.23309-7.9989,1.623a10.28106,10.28106,0,0,0-2.73826,5.46723,43.4859,43.4859,0,0,0-1.158,12.5407" transform="translate(-136.6838 -57.00314)" fill="#2f2e41"/>
</svg>