<svg xmlns="http://www.w3.org/2000/svg" xmlns:xlink="http://www.w3.org/1999/xlink" version="1.1" x="0px" y="0px" viewBox="0 0 100 100" style="enable-background:new 0 0 100 100;" xml:space="preserve">
    <g>
    <!-- <path d="M90.1,40.2l-9.5-12.3c-0.2-0.3-0.2-0.6-0.1-0.9l6.3-12.5c0.3-0.7-0.5-1.5-1.2-1.2l-12.5,6.3c-0.3,0.1-0.6,0-0.9-0.1   L59.9,9.9c-0.6-0.5-1.5,0-1.5,0.8l4.4,13.2c0,0.3-0.1,0.6-0.4,0.8l-15.5,8.6c-0.6,0.5-0.5,1.5,0.3,1.7l16.8,0.5   c0.3,0.1,0.5,0.4,0.6,0.6L65,52.9c0.3,0.7,1.3,0.9,1.7,0.3l8.6-15.5c0.2-0.3,0.5-0.4,0.8-0.4l13.2,4.4   C90.1,41.7,90.6,40.8,90.1,40.2z"/> -->
    <path d="M57.6,46.1c1-1.1,0.9-2.7-0.1-3.7c-1.1-1-2.7-0.9-3.7,0.1L9.8,89.4c-0.2,0.2-0.2,0.5,0,0.8c0.2,0.2,0.6,0.2,0.8,0   l46.9-43.9C57.5,46.2,57.6,46.2,57.6,46.1z"/>
    <path d="M15.3,69.7l27.9-26.1c0,0,0.1-0.1,0.1-0.1c0.6-0.7,0.6-1.7-0.1-2.3c-0.7-0.6-1.7-0.6-2.3,0.1L14.8,69.2   c-0.1,0.1-0.1,0.3,0,0.5C14.9,69.8,15.2,69.8,15.3,69.7z"/>
    <path d="M56.4,56.8L30.3,84.7c-0.1,0.1-0.1,0.3,0,0.5c0.1,0.1,0.3,0.1,0.5,0l27.9-26.1c0,0,0.1-0.1,0.1-0.1   c0.6-0.7,0.6-1.7-0.1-2.3C58.1,56.1,57,56.1,56.4,56.8z"/>
    </g>
</svg>